# xmcd
#
# Track frame offsets:
#	183
#	13613
#	25238
#	40415
#	55993
#	66348
#	77988
#	90225
#	105165
#	124723
#	140743
#	155473
#	166325
#	179250
#	191010
#	203668
#	217465
#	231730
#	242695
#	253735
#
# Disc length: 3561 seconds
#
# Revision: 1
# Processed by: cddbd v1.4b42PL1 Copyright (c) Steve Scherf et al.
# Submitted via: CDmax 1.8
#
DISCID=200de714
DTITLE=Kenny Rogers - 20 Greatist Hits
DYEAR=1900
DGENRE=
TTITLE0=Ruby, Don't Take Your Love To Town
TTITLE1=Poem For My Little Lady
TTITLE2=For The Good Times
TTITLE3=Good Lady Of Toronto
TTITLE4=Where Does Rosie Go
TTITLE5=Me And Bobby McGee
TTITLE6=What Am I Gonna Do
TTITLE7=All God's Lovely Children
TTITLE8=Lay It Down
TTITLE9=Tulsa Turnaround
TTITLE10=Sunshine
TTITLE11=Goodtime Liberator
TTITLE12=Reuben James
TTITLE13=Always Leaving, Always Gone
TTITLE14=Elvira
TTITLE15=Shine On Ruby Mountain
TTITLE16=Loser
TTITLE17=Homemade Lie
TTITLE18=Ticket To Nowhere
TTITLE19=Ruby, Don't Take Your Love To Town
EXTD=
EXTT0=
EXTT1=
EXTT2=
EXTT3=
EXTT4=
EXTT5=
EXTT6=
EXTT7=
EXTT8=
EXTT9=
EXTT10=
EXTT11=
EXTT12=
EXTT13=
EXTT14=
EXTT15=
EXTT16=
EXTT17=
EXTT18=
EXTT19=
PLAYORDER=
